<?xml version="1.0" encoding="UTF-8"?>
<!DOCTYPE svg PUBLIC "-//W3C//DTD SVG 1.1//EN" "http://www.w3.org/Graphics/SVG/1.1/DTD/svg11.dtd">
<!-- Creator: CorelDRAW 2021 (64 Bit) -->
<svg xmlns="http://www.w3.org/2000/svg" xml:space="preserve" width="580mm" height="285.75mm" version="1.1" style="shape-rendering:geometricPrecision; text-rendering:geometricPrecision; image-rendering:optimizeQuality; fill-rule:evenodd; clip-rule:evenodd"
viewBox="0 0 58000 28575"
 xmlns:xlink="http://www.w3.org/1999/xlink"
 xmlns:xodm="http://www.corel.com/coreldraw/odm/2003">
 <defs>
  <style type="text/css">
   <![CDATA[
    .fil0 {fill:none}
    .fil1 {fill:currentFill}
   ]]>
  </style>
 </defs>
 <g id="Camada_x0020_1">
  <metadata id="CorelCorpID_0Corel-Layer"/>
  <path class="fil0" d="M25682.51 39397.18c44.8,-199.89 37.45,-399.78 -19.1,-599.67 -107.82,-221.33 -180.94,-445.84 -233,-672.25 -19.34,-77.37 -58.97,-146.04 -105.15,-211.92 320.63,-79.92 624.86,-203.7 915.1,-364.73 292.11,-118.97 527.69,-273.91 763.35,-428.8 377.17,-266.35 793.82,-486.27 1220.31,-694.6 528.95,-290.6 1082.46,-532.1 1642.28,-760.99 200.42,111.16 400.83,222.31 601.25,333.47 184.79,212.42 260.72,473.22 237.47,778.09 -13.47,161.68 -26.95,323.37 -40.42,485.05 -986.04,396.05 -1943.11,797.3 -2541.44,1263.14 -786.11,588.93 -1592.46,958.22 -2440.65,873.21z"/>
  <path class="fil1" d="M14650.99 -42.53c315.56,399.95 486.4,837.91 456.68,1328.68 -96.8,965.87 -47.83,1922.79 362.18,2283.44 669.75,593.11 1136.81,1253.57 1038.97,1846.67 -227.1,1549.94 -156.54,2531.6 1118.48,2688.62 1520.97,228.72 2904.45,1324.6 4066.02,3820.44 729.77,1749.6 804.83,3375.88 -509.39,4740.8 -1104.16,1082.48 -1423.31,2451.7 -1404.74,3598.95 -59.16,1342.27 -1117.9,2090.24 -2934.37,2064.92 -1424.9,-20.06 -2820.74,265.48 -4315.09,545.43 -2666.55,582.91 -5181.63,1817.76 -7401.02,3405.6 -1775.11,1152.66 -3385.17,1943.67 -5160.31,2315.26l58023.01 0 0 -28638.81 -43340.42 0zm1650.22 25250.41c1472.51,-1323.78 3550.45,-1987.89 5440.67,-1861.34 705.48,92.42 886.51,621.35 657.86,1224.3 -682.88,1578.59 -3212.24,2738.29 -5758.45,1567.69 -393.26,-216.9 -636.01,-612.43 -340.08,-930.65zm6829.27 -10211.09c-209.7,-2651.35 157.5,-3219.12 1250.83,-3422.66 441.75,3.22 1167.43,-174.2 1496.55,933.97 817.14,2920.24 345.91,5521.82 -1873.17,4043.2 -369.7,-291.63 -793.13,-930.21 -874.21,-1554.51z"/>
 </g>
</svg>
